<mxfile host="65bd71144e">
    <diagram id="tVjk7x14zp5mqQvgJnNK" name="Page-1">
        <mxGraphModel dx="4617" dy="2640" grid="1" gridSize="10" guides="1" tooltips="1" connect="1" arrows="1" fold="1" page="1" pageScale="1" pageWidth="850" pageHeight="1100" math="0" shadow="0">
            <root>
                <mxCell id="0"/>
                <mxCell id="1" parent="0"/>
                <mxCell id="3" value="" style="rounded=0;whiteSpace=wrap;html=1;fontSize=17;" vertex="1" parent="1">
                    <mxGeometry x="70" y="60" width="200" height="340" as="geometry"/>
                </mxCell>
                <mxCell id="4" value="" style="rounded=0;whiteSpace=wrap;html=1;fontSize=17;" vertex="1" parent="1">
                    <mxGeometry x="70" y="360" width="180" height="40" as="geometry"/>
                </mxCell>
                <mxCell id="5" value="①" style="rounded=0;whiteSpace=wrap;html=1;fontSize=17;" vertex="1" parent="1">
                    <mxGeometry x="70" y="360" width="50" height="40" as="geometry"/>
                </mxCell>
                <mxCell id="26" style="edgeStyle=none;html=1;exitX=0.5;exitY=1;exitDx=0;exitDy=0;fontSize=17;" edge="1" parent="1" source="6" target="25">
                    <mxGeometry relative="1" as="geometry"/>
                </mxCell>
                <mxCell id="6" value="②" style="rounded=0;whiteSpace=wrap;html=1;fontSize=17;" vertex="1" parent="1">
                    <mxGeometry x="120" y="360" width="50" height="40" as="geometry"/>
                </mxCell>
                <mxCell id="34" style="edgeStyle=none;html=1;entryX=0.632;entryY=-0.033;entryDx=0;entryDy=0;entryPerimeter=0;exitX=0.5;exitY=1;exitDx=0;exitDy=0;fontSize=17;" edge="1" parent="1" source="7" target="33">
                    <mxGeometry relative="1" as="geometry"/>
                </mxCell>
                <mxCell id="7" value="③" style="rounded=0;whiteSpace=wrap;html=1;fontSize=17;" vertex="1" parent="1">
                    <mxGeometry x="170" y="360" width="50" height="40" as="geometry"/>
                </mxCell>
                <mxCell id="42" style="edgeStyle=none;html=1;entryX=0.596;entryY=-0.033;entryDx=0;entryDy=0;entryPerimeter=0;fontSize=17;" edge="1" parent="1" source="8" target="41">
                    <mxGeometry relative="1" as="geometry"/>
                </mxCell>
                <mxCell id="8" value="④" style="rounded=0;whiteSpace=wrap;html=1;fontSize=17;" vertex="1" parent="1">
                    <mxGeometry x="220" y="360" width="50" height="40" as="geometry"/>
                </mxCell>
                <mxCell id="10" value="" style="endArrow=classic;html=1;exitX=0.5;exitY=1;exitDx=0;exitDy=0;fontSize=17;" edge="1" parent="1" source="5" target="18">
                    <mxGeometry width="50" height="50" relative="1" as="geometry">
                        <mxPoint x="400" y="430" as="sourcePoint"/>
                        <mxPoint x="80" y="560" as="targetPoint"/>
                    </mxGeometry>
                </mxCell>
                <mxCell id="11" value="予約1" style="rounded=0;whiteSpace=wrap;html=1;fontSize=17;" vertex="1" parent="1">
                    <mxGeometry x="-30" y="570" width="200" height="340" as="geometry"/>
                </mxCell>
                <mxCell id="12" value="" style="rounded=0;whiteSpace=wrap;html=1;fontSize=17;" vertex="1" parent="1">
                    <mxGeometry x="-30" y="870" width="180" height="40" as="geometry"/>
                </mxCell>
                <mxCell id="13" value="①" style="rounded=0;whiteSpace=wrap;html=1;fontSize=17;" vertex="1" parent="1">
                    <mxGeometry x="-30" y="870" width="50" height="40" as="geometry"/>
                </mxCell>
                <mxCell id="14" value="②" style="rounded=0;whiteSpace=wrap;html=1;fontSize=17;" vertex="1" parent="1">
                    <mxGeometry x="20" y="870" width="50" height="40" as="geometry"/>
                </mxCell>
                <mxCell id="15" value="③" style="rounded=0;whiteSpace=wrap;html=1;fontSize=17;" vertex="1" parent="1">
                    <mxGeometry x="70" y="870" width="50" height="40" as="geometry"/>
                </mxCell>
                <mxCell id="16" value="④" style="rounded=0;whiteSpace=wrap;html=1;fontSize=17;" vertex="1" parent="1">
                    <mxGeometry x="120" y="870" width="50" height="40" as="geometry"/>
                </mxCell>
                <mxCell id="18" value="①" style="text;html=1;align=center;verticalAlign=middle;resizable=0;points=[];autosize=1;strokeColor=none;fillColor=none;fontSize=17;" vertex="1" parent="1">
                    <mxGeometry x="-15" y="520" width="40" height="30" as="geometry"/>
                </mxCell>
                <mxCell id="19" value="" style="rounded=0;whiteSpace=wrap;html=1;fontSize=17;" vertex="1" parent="1">
                    <mxGeometry x="280" y="570" width="200" height="340" as="geometry"/>
                </mxCell>
                <mxCell id="20" value="" style="rounded=0;whiteSpace=wrap;html=1;fontSize=17;" vertex="1" parent="1">
                    <mxGeometry x="280" y="870" width="180" height="40" as="geometry"/>
                </mxCell>
                <mxCell id="21" value="①" style="rounded=0;whiteSpace=wrap;html=1;fontSize=17;" vertex="1" parent="1">
                    <mxGeometry x="280" y="870" width="50" height="40" as="geometry"/>
                </mxCell>
                <mxCell id="22" value="②" style="rounded=0;whiteSpace=wrap;html=1;fontSize=17;" vertex="1" parent="1">
                    <mxGeometry x="330" y="870" width="50" height="40" as="geometry"/>
                </mxCell>
                <mxCell id="23" value="③" style="rounded=0;whiteSpace=wrap;html=1;fontSize=17;" vertex="1" parent="1">
                    <mxGeometry x="380" y="870" width="50" height="40" as="geometry"/>
                </mxCell>
                <mxCell id="24" value="④" style="rounded=0;whiteSpace=wrap;html=1;fontSize=17;" vertex="1" parent="1">
                    <mxGeometry x="430" y="870" width="50" height="40" as="geometry"/>
                </mxCell>
                <mxCell id="25" value="②" style="text;html=1;align=center;verticalAlign=middle;resizable=0;points=[];autosize=1;strokeColor=none;fillColor=none;fontSize=17;" vertex="1" parent="1">
                    <mxGeometry x="295" y="520" width="40" height="30" as="geometry"/>
                </mxCell>
                <mxCell id="27" value="予約2" style="rounded=0;whiteSpace=wrap;html=1;fontSize=17;" vertex="1" parent="1">
                    <mxGeometry x="570" y="570" width="200" height="340" as="geometry"/>
                </mxCell>
                <mxCell id="28" value="" style="rounded=0;whiteSpace=wrap;html=1;fontSize=17;" vertex="1" parent="1">
                    <mxGeometry x="570" y="870" width="180" height="40" as="geometry"/>
                </mxCell>
                <mxCell id="29" value="①" style="rounded=0;whiteSpace=wrap;html=1;fontSize=17;" vertex="1" parent="1">
                    <mxGeometry x="570" y="870" width="50" height="40" as="geometry"/>
                </mxCell>
                <mxCell id="30" value="②" style="rounded=0;whiteSpace=wrap;html=1;fontSize=17;" vertex="1" parent="1">
                    <mxGeometry x="620" y="870" width="50" height="40" as="geometry"/>
                </mxCell>
                <mxCell id="31" value="③" style="rounded=0;whiteSpace=wrap;html=1;fontSize=17;" vertex="1" parent="1">
                    <mxGeometry x="670" y="870" width="50" height="40" as="geometry"/>
                </mxCell>
                <mxCell id="32" value="④" style="rounded=0;whiteSpace=wrap;html=1;fontSize=17;" vertex="1" parent="1">
                    <mxGeometry x="720" y="870" width="50" height="40" as="geometry"/>
                </mxCell>
                <mxCell id="33" value="③" style="text;html=1;align=center;verticalAlign=middle;resizable=0;points=[];autosize=1;strokeColor=none;fillColor=none;fontSize=17;" vertex="1" parent="1">
                    <mxGeometry x="585" y="520" width="40" height="30" as="geometry"/>
                </mxCell>
                <mxCell id="35" value="" style="rounded=0;whiteSpace=wrap;html=1;fontSize=17;" vertex="1" parent="1">
                    <mxGeometry x="840" y="570" width="200" height="340" as="geometry"/>
                </mxCell>
                <mxCell id="36" value="" style="rounded=0;whiteSpace=wrap;html=1;fontSize=17;" vertex="1" parent="1">
                    <mxGeometry x="840" y="870" width="180" height="40" as="geometry"/>
                </mxCell>
                <mxCell id="37" value="①" style="rounded=0;whiteSpace=wrap;html=1;fontSize=17;" vertex="1" parent="1">
                    <mxGeometry x="840" y="870" width="50" height="40" as="geometry"/>
                </mxCell>
                <mxCell id="38" value="②" style="rounded=0;whiteSpace=wrap;html=1;fontSize=17;" vertex="1" parent="1">
                    <mxGeometry x="890" y="870" width="50" height="40" as="geometry"/>
                </mxCell>
                <mxCell id="39" value="③" style="rounded=0;whiteSpace=wrap;html=1;fontSize=17;" vertex="1" parent="1">
                    <mxGeometry x="940" y="870" width="50" height="40" as="geometry"/>
                </mxCell>
                <mxCell id="40" value="④" style="rounded=0;whiteSpace=wrap;html=1;fontSize=17;" vertex="1" parent="1">
                    <mxGeometry x="990" y="870" width="50" height="40" as="geometry"/>
                </mxCell>
                <mxCell id="41" value="④" style="text;html=1;align=center;verticalAlign=middle;resizable=0;points=[];autosize=1;strokeColor=none;fillColor=none;fontSize=17;" vertex="1" parent="1">
                    <mxGeometry x="855" y="520" width="40" height="30" as="geometry"/>
                </mxCell>
                <mxCell id="43" value="闇の掲示板" style="rounded=0;whiteSpace=wrap;html=1;fontSize=17;" vertex="1" parent="1">
                    <mxGeometry x="280" y="600" width="200" height="250" as="geometry"/>
                </mxCell>
                <mxCell id="58" style="edgeStyle=orthogonalEdgeStyle;html=1;entryX=-0.035;entryY=0.473;entryDx=0;entryDy=0;entryPerimeter=0;jumpStyle=sharp;rounded=0;fontSize=17;" edge="1" parent="1" source="44" target="55">
                    <mxGeometry relative="1" as="geometry">
                        <Array as="points">
                            <mxPoint x="893" y="529"/>
                        </Array>
                    </mxGeometry>
                </mxCell>
                <mxCell id="44" value="A" style="rounded=0;whiteSpace=wrap;html=1;fontSize=17;" vertex="1" parent="1">
                    <mxGeometry x="850" y="590" width="85" height="50" as="geometry"/>
                </mxCell>
                <mxCell id="59" style="edgeStyle=orthogonalEdgeStyle;html=1;entryX=0.465;entryY=-0.037;entryDx=0;entryDy=0;entryPerimeter=0;jumpStyle=sharp;rounded=0;fontSize=17;" edge="1" parent="1" source="45" target="57">
                    <mxGeometry relative="1" as="geometry">
                        <Array as="points">
                            <mxPoint x="987" y="460"/>
                            <mxPoint x="1394" y="460"/>
                        </Array>
                    </mxGeometry>
                </mxCell>
                <mxCell id="45" value="B" style="rounded=0;whiteSpace=wrap;html=1;fontSize=17;" vertex="1" parent="1">
                    <mxGeometry x="945" y="590" width="85" height="50" as="geometry"/>
                </mxCell>
                <mxCell id="46" value="C" style="rounded=0;whiteSpace=wrap;html=1;fontSize=17;" vertex="1" parent="1">
                    <mxGeometry x="850" y="650" width="85" height="50" as="geometry"/>
                </mxCell>
                <mxCell id="47" value="D" style="rounded=0;whiteSpace=wrap;html=1;fontSize=17;" vertex="1" parent="1">
                    <mxGeometry x="945" y="650" width="85" height="50" as="geometry"/>
                </mxCell>
                <mxCell id="48" value="E" style="rounded=0;whiteSpace=wrap;html=1;fontSize=17;" vertex="1" parent="1">
                    <mxGeometry x="850" y="710" width="85" height="50" as="geometry"/>
                </mxCell>
                <mxCell id="49" value="F" style="rounded=0;whiteSpace=wrap;html=1;fontSize=17;" vertex="1" parent="1">
                    <mxGeometry x="945" y="710" width="85" height="50" as="geometry"/>
                </mxCell>
                <mxCell id="50" value="G" style="rounded=0;whiteSpace=wrap;html=1;fontSize=17;" vertex="1" parent="1">
                    <mxGeometry x="850" y="770" width="85" height="50" as="geometry"/>
                </mxCell>
                <mxCell id="51" value="H" style="rounded=0;whiteSpace=wrap;html=1;fontSize=17;" vertex="1" parent="1">
                    <mxGeometry x="945" y="770" width="85" height="50" as="geometry"/>
                </mxCell>
                <mxCell id="52" value="一面の白き平野、ナゼル" style="rounded=0;whiteSpace=wrap;html=1;fontSize=17;" vertex="1" parent="1">
                    <mxGeometry x="1120" y="570" width="200" height="340" as="geometry"/>
                </mxCell>
                <mxCell id="54" value="ナゼルゲーム" style="text;html=1;align=center;verticalAlign=middle;resizable=0;points=[];autosize=1;strokeColor=none;fillColor=none;fontSize=17;" vertex="1" parent="1">
                    <mxGeometry x="865" y="525" width="130" height="30" as="geometry"/>
                </mxCell>
                <mxCell id="55" value="A" style="text;html=1;align=center;verticalAlign=middle;resizable=0;points=[];autosize=1;strokeColor=none;fillColor=none;fontSize=17;" vertex="1" parent="1">
                    <mxGeometry x="1115" y="515" width="30" height="30" as="geometry"/>
                </mxCell>
                <mxCell id="56" value="ナゼルダイス補助" style="rounded=0;whiteSpace=wrap;html=1;fontSize=17;" vertex="1" parent="1">
                    <mxGeometry x="1385" y="570" width="200" height="340" as="geometry"/>
                </mxCell>
                <mxCell id="57" value="B" style="text;html=1;align=center;verticalAlign=middle;resizable=0;points=[];autosize=1;strokeColor=none;fillColor=none;fontSize=17;" vertex="1" parent="1">
                    <mxGeometry x="1380" y="515" width="30" height="30" as="geometry"/>
                </mxCell>
                <mxCell id="60" value="ハイパーヒロキアドベンチャー　〜2014年統合版〜" style="rounded=0;whiteSpace=wrap;html=1;fontSize=17;" vertex="1" parent="1">
                    <mxGeometry x="1115" y="995" width="200" height="340" as="geometry"/>
                </mxCell>
                <mxCell id="61" value="C" style="text;html=1;align=center;verticalAlign=middle;resizable=0;points=[];autosize=1;strokeColor=none;fillColor=none;fontSize=17;" vertex="1" parent="1">
                    <mxGeometry x="1105" y="960" width="40" height="30" as="geometry"/>
                </mxCell>
                <mxCell id="62" style="edgeStyle=orthogonalEdgeStyle;rounded=0;jumpStyle=sharp;html=1;fontSize=17;" edge="1" parent="1" source="46" target="61">
                    <mxGeometry relative="1" as="geometry">
                        <Array as="points">
                            <mxPoint x="893" y="730"/>
                            <mxPoint x="1090" y="730"/>
                            <mxPoint x="1090" y="975"/>
                        </Array>
                    </mxGeometry>
                </mxCell>
                <mxCell id="63" value="etc..." style="text;html=1;align=center;verticalAlign=middle;resizable=0;points=[];autosize=1;strokeColor=none;fillColor=none;fontSize=17;" vertex="1" parent="1">
                    <mxGeometry x="1450" y="1205" width="60" height="30" as="geometry"/>
                </mxCell>
            </root>
        </mxGraphModel>
    </diagram>
</mxfile>